<svg xmlns="http://www.w3.org/2000/svg" xmlns:xlink="http://www.w3.org/1999/xlink" viewBox="0 0 100 125" version="1.1" x="0px" y="0px"><title>Bell v3.2</title><desc>Created with Sketch.</desc><g stroke="none" stroke-width="1" fill="none" fill-rule="evenodd"><g fill-rule="nonzero" fill="#000000"><path d="M42,68 L44,68 C44,71.3137085 46.6862915,74 50,74 C53.3137085,74 56,71.3137085 56,68 L58,68 C58,72.418278 54.418278,76 50,76 C45.581722,76 42,72.418278 42,68 Z M75,61.9983345 L75,63.0018986 C75,64.6638395 73.6579878,66 71.9986107,66 L28.0013893,66 C26.3433202,66 25,64.6583707 25,63.0018986 L25,61.9983345 C25,58.6889869 27.6863164,56.0049783 31,56.0000069 L31,42.9992494 C31,32.5034274 39.5051683,24 50,24 C60.4948506,24 69,32.5055082 69,42.9992494 L69,56.0000064 C72.3199024,56.0049625 75,58.6854471 75,61.9983345 Z M68.990778,58 C67.892318,58 67,57.1009732 67,56.0072136 L67,42.9992494 C67,33.6100588 59.3902622,26 50,26 C40.6096462,26 33,33.6080885 33,42.9992494 L33,56.0072136 C33,57.1059532 32.1031658,58 31.009222,58 C28.7949757,58 27,59.7913845 27,61.9983345 L27,63.0018986 C27,63.5532369 27.4473262,64 28.0013893,64 L71.9986107,64 C72.55537,64 73,63.5573088 73,63.0018986 L73,61.9983345 C73,59.7873973 71.2108155,58 68.990778,58 Z"/></g></g><text x="0" y="115" fill="#000000" font-size="5px" font-weight="bold" font-family="'Helvetica Neue', Helvetica, Arial-Unicode, Arial, Sans-serif">Created by Landan Lloyd</text><text x="0" y="120" fill="#000000" font-size="5px" font-weight="bold" font-family="'Helvetica Neue', Helvetica, Arial-Unicode, Arial, Sans-serif">from the Noun Project</text></svg>